<?xml version="1.0" standalone="no"?>
<!DOCTYPE svg PUBLIC "-//W3C//DTD SVG 20010904//EN"
 "http://www.w3.org/TR/2001/REC-SVG-20010904/DTD/svg10.dtd">
<svg version="1.0" xmlns="http://www.w3.org/2000/svg"
 width="1920.000000pt" height="1080.000000pt" viewBox="0 0 1920.000000 1080.000000"
 preserveAspectRatio="xMidYMid meet">

<g transform="translate(0.000000,1080.000000) scale(0.100000,-0.100000)"
fill="#000000" stroke="none">
<path d="M5220 8944 c-14 -2 -70 -11 -124 -20 -466 -74 -1125 -400 -1649 -817
-549 -436 -947 -896 -1259 -1457 l-58 -104 193 -98 c105 -54 194 -98 197 -98
3 0 23 33 44 73 248 458 601 879 1053 1257 418 349 901 622 1335 754 198 60
267 71 438 71 145 0 158 -2 205 -25 34 -17 57 -38 73 -65 21 -36 23 -50 18
-125 -12 -219 -139 -451 -615 -1125 -101 -143 -225 -318 -276 -390 -101 -143
-768 -1098 -884 -1265 -40 -58 -108 -157 -151 -220 -44 -63 -91 -131 -104
-150 -14 -19 -133 -189 -265 -378 l-240 -343 -218 -3 c-253 -3 -321 -15 -562
-98 -381 -132 -642 -284 -867 -506 -231 -228 -364 -448 -415 -688 -18 -89 -16
-267 4 -343 48 -179 154 -310 298 -368 313 -126 726 50 1160 493 200 206 313
347 614 769 98 138 180 252 182 255 2 3 73 -13 156 -34 207 -53 709 -220 1067
-356 1035 -392 1539 -537 2070 -594 265 -29 259 -29 264 -3 9 44 17 417 9 417
-102 0 -421 46 -640 91 -319 66 -1012 290 -1558 504 -298 117 -684 248 -1012
345 -40 11 -73 24 -73 28 0 4 74 113 165 242 90 129 253 363 362 519 336 483
1068 1530 1146 1641 334 473 423 600 489 705 155 248 253 461 304 660 23 91
28 131 28 235 0 111 -3 134 -28 205 -70 201 -216 332 -436 390 -63 16 -378 30
-440 19z m-2390 -4978 c0 -8 -4 -17 -9 -20 -5 -3 -46 -59 -91 -123 -320 -454
-597 -752 -844 -907 -178 -112 -304 -134 -353 -60 -50 77 7 298 120 464 77
112 287 303 417 380 192 114 471 224 670 265 86 17 90 17 90 1z"/>
<path d="M10405 8681 l-50 -6 -3 -392 -2 -393 50 0 c27 0 50 -4 50 -10 0 -5 7
-10 15 -10 13 0 15 52 15 410 0 322 -3 410 -12 408 -7 0 -35 -4 -63 -7z"/>
<path d="M14043 8683 l-163 -3 0 -395 0 -395 53 0 52 0 0 167 0 168 108 3 c69
2 107 -1 107 -8 0 -5 7 -10 15 -10 13 0 15 33 15 240 0 187 -3 240 -12 238 -7
-1 -86 -4 -175 -5z m62 -233 l0 -115 -60 0 -60 0 -2 109 c-1 60 0 113 3 118 3
5 31 8 62 6 l57 -3 0 -115z"/>
<path d="M7517 8673 c-4 -3 -7 -181 -7 -395 l0 -388 25 0 c14 0 86 -1 160 -1
74 0 140 1 145 1 6 0 10 139 10 395 l0 395 -55 0 -55 0 -2 -342 -3 -343 -57
-3 -58 -3 0 346 0 345 -48 0 c-27 0 -52 -3 -55 -7z"/>
<path d="M8420 8285 l0 -395 55 0 55 0 0 340 0 340 60 0 60 0 0 -339 0 -339
46 -4 c25 -2 50 -1 55 3 6 3 8 160 7 395 l-3 389 -167 3 -168 2 0 -395z"/>
<path d="M9337 8674 c-4 -4 -7 -29 -7 -55 l0 -48 58 -3 57 -3 3 -337 2 -338
50 0 50 0 2 338 3 337 58 3 58 3 -3 52 -3 52 -161 3 c-88 1 -163 -1 -167 -4z"/>
<path d="M11150 8285 l0 -395 55 0 55 0 0 340 0 341 58 -3 57 -3 3 -337 c1
-213 6 -338 12 -339 6 -1 21 -1 35 -1 14 0 32 0 40 1 13 1 15 52 15 396 l0
395 -165 0 -165 0 0 -395z"/>
<path d="M12060 8286 l0 -396 165 0 165 0 0 50 0 49 -110 3 -111 3 -2 340 -2
340 -52 3 -53 3 0 -395z"/>
<path d="M12976 8673 c-3 -4 -6 -181 -6 -395 l0 -388 165 0 165 0 0 394 0 394
-50 0 -50 0 -2 -342 -3 -341 -58 0 -57 0 -3 340 -2 340 -47 2 c-25 1 -49 -1
-52 -4z"/>
<path d="M14790 8284 l0 -394 50 0 50 0 2 168 3 167 58 3 57 3 0 -171 0 -170
55 0 55 0 0 395 0 396 -165 -1 -165 -2 0 -394z m220 176 c0 -60 0 -113 0 -117
0 -5 -26 -8 -57 -8 l-58 0 -3 104 c-1 58 0 111 2 118 4 9 24 13 61 13 l55 0 0
-110z"/>
<path d="M6903 8638 c-17 -18 -53 -55 -82 -83 l-51 -49 -78 77 c-43 42 -81 77
-85 77 -4 0 -7 -173 -7 -385 l0 -385 55 0 55 0 0 250 c0 138 3 250 7 250 4 0
19 -11 33 -25 l27 -25 18 20 c10 11 22 20 27 20 4 0 8 -110 8 -245 l0 -245 55
0 55 0 0 390 c0 215 -2 390 -4 390 -2 0 -17 -15 -33 -32z"/>
<path d="M15725 7899 c-121 -172 -238 -337 -260 -369 -22 -32 -123 -174 -224
-316 -101 -143 -241 -339 -310 -437 -69 -97 -164 -231 -211 -297 -47 -66 -164
-231 -261 -367 -487 -688 -458 -652 -669 -849 -99 -93 -142 -131 -264 -234
-152 -129 -429 -319 -581 -399 -69 -37 -216 -101 -230 -101 -31 0 57 185 172
360 84 128 246 347 336 455 l59 70 -149 143 c-81 78 -155 146 -163 151 -11 7
-57 -32 -190 -161 -201 -194 -582 -554 -751 -708 -433 -395 -710 -578 -878
-579 l-63 -1 6 33 c15 76 182 357 329 553 159 213 247 315 421 489 314 314
618 524 881 611 75 24 106 29 190 29 120 0 172 -17 251 -81 30 -24 56 -44 60
-44 3 0 45 33 92 73 70 58 219 179 241 194 3 2 -20 29 -50 59 -394 404 -1005
305 -1704 -275 -49 -41 -214 -199 -365 -351 -261 -262 -332 -325 -600 -536
-336 -264 -783 -555 -1079 -704 -270 -135 -489 -203 -666 -204 -99 -1 -116 2
-166 25 -146 69 -226 243 -199 432 45 320 315 777 674 1145 283 289 542 452
721 452 l55 0 0 -56 c0 -31 -7 -80 -16 -109 -20 -71 -102 -204 -188 -306 l-68
-82 153 -154 154 -154 52 55 c119 127 221 280 282 422 51 118 71 212 71 331 0
169 -39 271 -141 369 -139 131 -349 165 -587 93 -100 -30 -295 -130 -394 -202
-284 -205 -580 -507 -781 -798 -29 -42 -77 -97 -107 -124 -114 -101 -301 -207
-474 -270 -89 -32 -283 -81 -290 -74 -2 2 21 56 53 119 101 206 143 369 143
555 1 220 -56 378 -180 504 -106 108 -219 154 -377 154 -136 1 -243 -33 -398
-128 -247 -150 -616 -549 -958 -1035 -213 -302 -369 -627 -401 -836 -31 -201
55 -418 206 -518 98 -65 154 -80 291 -80 105 0 130 4 200 28 259 90 618 343
965 683 l85 83 89 0 c172 0 383 41 601 117 179 61 169 59 162 40 -40 -105 -53
-369 -24 -489 85 -351 315 -577 637 -628 263 -41 629 49 1035 255 184 93 254
135 493 291 95 63 175 114 177 114 3 0 5 -30 5 -67 0 -198 108 -348 295 -414
229 -80 512 -9 821 207 109 76 307 232 403 317 64 58 73 61 77 29 10 -73 17
-99 38 -140 49 -96 148 -162 269 -182 178 -28 419 52 700 234 48 31 93 56 99
56 7 0 8 -14 4 -42 -38 -235 -20 -387 62 -514 89 -137 227 -204 420 -204 259
0 536 127 885 408 314 251 566 482 831 760 44 46 82 79 86 75 4 -4 14 -57 23
-118 9 -60 26 -162 37 -225 32 -177 39 -163 -120 -227 -770 -307 -1168 -692
-1171 -1130 -1 -152 43 -267 140 -362 85 -85 183 -128 312 -138 335 -26 872
250 1112 572 145 194 227 460 227 740 l0 80 153 54 c737 259 1191 551 1581
1016 142 169 189 237 174 251 -19 18 -291 204 -299 204 -3 0 -44 -48 -89 -107
-79 -102 -280 -312 -345 -361 -16 -12 -55 -41 -85 -64 -154 -115 -373 -242
-551 -319 -221 -95 -564 -222 -582 -216 -22 7 -97 534 -97 681 0 136 20 223
76 334 119 237 439 469 694 502 35 5 67 7 71 5 23 -15 -54 -222 -125 -334 -22
-35 -25 -45 -14 -52 7 -5 54 -33 103 -61 50 -29 129 -75 177 -104 l87 -53 14
22 c27 42 107 206 130 269 63 169 80 346 44 458 -41 125 -146 233 -264 271
-146 47 -376 21 -574 -65 -232 -100 -481 -295 -633 -495 -62 -81 -145 -239
-173 -328 -17 -55 -31 -71 -268 -308 -393 -394 -573 -562 -830 -775 -360 -299
-541 -407 -706 -417 -73 -5 -78 -4 -89 18 -32 60 22 259 121 447 86 162 124
220 571 851 221 311 452 636 512 722 61 86 237 334 390 550 154 217 305 430
336 474 31 44 95 134 142 200 46 66 167 236 267 378 100 141 181 261 179 266
-3 10 -322 239 -341 246 -7 3 -110 -134 -232 -306z m-8176 -1938 c79 -84 67
-304 -27 -504 -49 -104 -161 -278 -233 -360 -10 -12 -150 28 -220 63 -162 82
-208 184 -158 346 20 65 28 76 143 192 249 254 419 344 495 263z m-975 -955
c21 -30 59 -75 86 -100 59 -55 187 -140 235 -156 19 -6 35 -16 35 -21 0 -14
-197 -174 -328 -266 -64 -45 -161 -105 -215 -133 -82 -42 -107 -50 -152 -50
-30 0 -57 5 -61 11 -12 19 -6 114 9 167 19 63 97 218 172 342 76 126 166 260
175 260 4 0 24 -24 44 -54z m9156 -1168 c0 -42 -30 -148 -59 -212 -86 -191
-250 -345 -486 -457 -55 -26 -124 -54 -154 -63 -64 -19 -152 -21 -169 -4 -20
20 -14 99 13 157 84 180 246 317 564 477 106 53 266 123 284 124 4 0 7 -10 7
-22z"/>
</g>
</svg>
